<svg width="66" height="56" viewBox="0 0 66 56" fill="none" xmlns="http://www.w3.org/2000/svg">
<g filter="url(#filter0_i_17_5237)">
<path fill-rule="evenodd" clip-rule="evenodd" d="M29.9139 4.59583C19.6046 4.59583 9.79601 12.8262 8.00581 22.9789L7.94264 23.3595C6.50457 32.5992 12.2935 40.2311 21.3562 41.2474L21.6585 41.2781L21.7614 41.3063C21.9199 41.3427 22.0882 41.362 22.2644 41.362H43.2644L43.6085 41.3573C50.6058 41.159 57.1199 35.565 58.3262 28.7236C59.557 21.7436 54.809 16.0852 47.7214 16.0852L47.216 16.0948C46.7104 16.114 46.2041 16.1618 45.6994 16.2375L45.2487 16.3127L45.1809 16.0115C43.5595 9.22951 37.6182 4.59583 29.9139 4.59583Z" fill="url(#paint0_linear_17_5237)"/>
</g>
<path fill-rule="evenodd" clip-rule="evenodd" d="M24.7125 41.6575C25.3989 40.4792 26.8579 39.906 27.9713 40.3774C29.0316 40.8262 29.3961 42.0606 28.8355 43.195L28.7445 43.3643L25.3982 49.109C24.7118 50.2873 23.2528 50.8605 22.1394 50.3891C21.0791 49.9403 20.7146 48.7059 21.2752 47.5715L21.3662 47.4022L24.7125 41.6575ZM35.2125 41.6575C35.8989 40.4792 37.3579 39.906 38.4713 40.3774C39.5316 40.8262 39.8961 42.0606 39.3355 43.195L39.2445 43.3643L35.8982 49.109C35.2118 50.2873 33.7528 50.8605 32.6394 50.3891C31.5791 49.9403 31.2146 48.7059 31.7752 47.5715L31.8662 47.4022L35.2125 41.6575Z" fill="url(#paint1_linear_17_5237)"/>
<defs>
<filter id="filter0_i_17_5237" x="5.72381" y="4.59583" width="52.7969" height="40.7661" filterUnits="userSpaceOnUse" color-interpolation-filters="sRGB">
<feFlood flood-opacity="0" result="BackgroundImageFix"/>
<feBlend mode="normal" in="SourceGraphic" in2="BackgroundImageFix" result="shape"/>
<feColorMatrix in="SourceAlpha" type="matrix" values="0 0 0 0 0 0 0 0 0 0 0 0 0 0 0 0 0 0 127 0" result="hardAlpha"/>
<feOffset dx="-2" dy="4"/>
<feGaussianBlur stdDeviation="2"/>
<feComposite in2="hardAlpha" operator="arithmetic" k2="-1" k3="1"/>
<feColorMatrix type="matrix" values="0 0 0 0 1 0 0 0 0 1 0 0 0 0 1 0 0 0 1 0"/>
<feBlend mode="normal" in2="shape" result="effect1_innerShadow_17_5237"/>
</filter>
<linearGradient id="paint0_linear_17_5237" x1="14.8434" y1="4.59583" x2="54.9832" y2="42.541" gradientUnits="userSpaceOnUse">
<stop stop-color="white"/>
<stop offset="1" stop-color="#B4E6FB"/>
</linearGradient>
<linearGradient id="paint1_linear_17_5237" x1="22.4665" y1="40.2124" x2="22.4665" y2="50.5541" gradientUnits="userSpaceOnUse">
<stop stop-color="#4CAFFF"/>
<stop offset="1" stop-color="#8FD5FF"/>
</linearGradient>
</defs>
</svg>
