<svg width="20" height="20" viewBox="0 0 20 20" fill="none" xmlns="http://www.w3.org/2000/svg">
<path fill-rule="evenodd" clip-rule="evenodd" d="M3.33333 10.0001C3.33333 6.31818 6.3181 3.33341 10 3.33341C13.6819 3.33341 16.6667 6.31818 16.6667 10.0001C16.6667 13.682 13.6819 16.6667 10 16.6667C6.3181 16.6667 3.33333 13.682 3.33333 10.0001ZM10 1.66675C5.39762 1.66675 1.66666 5.39771 1.66666 10.0001C1.66666 14.6025 5.39762 18.3334 10 18.3334C14.6024 18.3334 18.3333 14.6025 18.3333 10.0001C18.3333 5.39771 14.6024 1.66675 10 1.66675ZM9.16666 9.91066L12.0977 13.0671L13.319 11.933L10.8333 9.25617V5.41675H9.16666V9.91066Z" fill="url(#paint0_linear_30_2776)"/>
<defs>
<linearGradient id="paint0_linear_30_2776" x1="10" y1="1.66675" x2="10" y2="18.3334" gradientUnits="userSpaceOnUse">
<stop stop-color="#4FBDFF"/>
<stop offset="1" stop-color="#4FBDFF" stop-opacity="0.4"/>
</linearGradient>
</defs>
</svg>
